<svg width="616" height="226" fill="none" xmlns="http://www.w3.org/2000/svg"><mask id="a" style="mask-type:alpha" maskUnits="userSpaceOnUse" x="0" y="0" width="616" height="226"><path d="M597.435 67.671c-25.519-9.945-47.53-28.131-62.82-51.913-3.241-5.039-7.043-7.306-10.536-6.919a3.451 3.451 0 01-.035.005l-.046.005c-.826.1-1.701.277-2.624.542C428.507 36.918 172.493 67.916 75.741 63.35c-.95-.05-1.865-.01-2.69.101-3.5.424-6.674 3.536-8.637 9.24-9.173 26.744-26.206 49.67-48.616 65.406-9.622 6.762-8.556 15.571 2.403 19.841 25.519 9.945 47.53 28.131 62.82 51.913 3.257 5.072 7.094 7.335 10.594 6.912a15.55 15.55 0 002.636-.544c92.867-27.515 348.882-58.513 445.632-53.958.96.038 1.854.012 2.678-.1l.035-.004.046-.005c3.474-.445 6.625-3.554 8.58-9.233 9.185-26.746 26.217-49.671 48.616-65.407 9.622-6.761 8.555-15.57-2.403-19.84z" fill="#FF64B0"/></mask><g mask="url(#a)"><path d="M597.435 67.671c-25.519-9.945-47.53-28.131-62.82-51.913-3.241-5.039-7.043-7.306-10.536-6.919a3.451 3.451 0 01-.035.005l-.046.005c-.826.1-1.701.277-2.624.542C428.507 36.918 172.493 67.916 75.741 63.35c-.95-.05-1.865-.01-2.69.101-3.5.424-6.674 3.536-8.637 9.24-9.173 26.744-26.206 49.67-48.616 65.406-9.622 6.762-8.556 15.571 2.403 19.841 25.519 9.945 47.53 28.131 62.82 51.913 3.257 5.072 7.094 7.335 10.594 6.912a15.55 15.55 0 002.636-.544c92.867-27.515 348.882-58.513 445.632-53.958.96.038 1.854.012 2.678-.1l.035-.004.046-.005c3.474-.445 6.625-3.554 8.58-9.233 9.185-26.746 26.217-49.671 48.616-65.407 9.622-6.761 8.555-15.57-2.403-19.84z" fill="#40E687"/><path d="M96.662 160.672l-4.217-34.833 19.295-2.336 4.218 34.833 8.537-1.034-5.169-42.688-36.37 4.404 5.169 42.688 8.537-1.034zm56.793-6.01c12.379-1.499 20.494-11.75 18.912-24.813-1.581-13.063-11.908-21.081-24.288-19.582-12.379 1.498-20.494 11.75-18.912 24.813 1.581 13.062 11.908 21.081 24.288 19.582zm-.951-7.854c-7.428.899-13.756-4.139-14.8-12.762-1.044-8.623 3.899-15.025 11.326-15.925 7.428-.899 13.755 4.139 14.8 12.762 1.044 8.623-3.899 15.025-11.326 15.925zm64.942-.76l-5.169-42.688-31.589 3.825c2.24 19.22 2.532 26.634 1.952 30.43-.461 3.347-2.174 4.941-4.479 5.22l-.683.082.951 7.855 1.537-.186c6.83-.827 10.245-4.099 10.746-14.988.125-4.693-.265-11.49-1.304-21.5l15.283-1.85 4.217 34.834 8.538-1.034zm29.987 1.22l11.072-49.506-8.538 1.034-7.963 37.261-16.711-34.273-8.537 1.033 22.642 45.338c-1.926 6.99-4.447 10.5-9.825 11.151-2.049.248-4.065.059-5.749-.257l.91 7.514c1.684.315 4.126.453 6.517.163 10.501-1.271 13.827-8.864 16.182-19.458zm43.335-34.007c-1.571.623-4.06 1.531-8.243 2.037-7.001.848-11.184-1.504-12.114-9.188l-1.169-9.648-8.537 1.034 1.178 9.733c1.561 12.892 8.36 17.526 20.91 16.007 2.988-.362 6.608-1.234 8.905-2.291l1.923 15.88 8.538-1.034-5.169-42.688-8.538 1.033 2.316 19.125zm60.201 16.62l-5.168-42.689-10.843 1.313-15.427 36.433-4.124-34.065-8.196.992 5.168 42.688 10.843-1.313 15.427-36.432 4.124 34.065 8.196-.992zm45.113-5.463l-5.168-42.688-31.59 3.825c2.241 19.22 2.532 26.635 1.952 30.43-.461 3.348-2.173 4.941-4.479 5.22l-.683.083.951 7.855 1.537-.186c6.83-.827 10.246-4.1 10.746-14.989.125-4.693-.265-11.489-1.303-21.499l15.282-1.85 4.218 34.833 8.537-1.034zm28.829-2.624c12.38-1.499 20.494-11.751 18.913-24.813-1.582-13.063-11.909-21.082-24.288-19.583-12.38 1.5-20.494 11.751-18.913 24.814 1.582 13.062 11.909 21.081 24.288 19.582zm-.951-7.855c-7.428.9-13.755-4.138-14.799-12.761-1.044-8.623 3.898-15.026 11.326-15.925 7.428-.9 13.755 4.138 14.799 12.762 1.044 8.623-3.898 15.025-11.326 15.924zm56.806-25.85l8.879-1.074c-2.317-10.548-11.979-16.655-23.249-15.29-12.209 1.478-20.152 11.709-18.571 24.771 1.582 13.063 11.738 21.102 23.947 19.624 11.611-1.406 19.666-10.004 18.984-21.357l-8.879 1.075c.004 7.19-4.824 11.673-11.056 12.427-7.257.879-13.414-4.179-14.458-12.802-1.044-8.623 3.727-15.005 10.984-15.884 6.147-.744 11.779 2.126 13.419 8.51zm52.008 5.225c-1.024-8.452-7.788-13.524-18.119-12.273l-9.477 1.148-1.705-14.088-8.538 1.034 5.169 42.688 18.099-2.191c10.673-1.292 15.594-7.866 14.571-16.318zm-17.934-5.019c5.806-.703 8.817 1.272 9.386 5.968.558 4.61-1.854 7.587-7.659 8.29l-8.794 1.065-1.726-14.258 8.793-1.065z" fill="#fff"/></g></svg>