<svg width="165" height="20" fill="none" xmlns="http://www.w3.org/2000/svg"><path d="M3.52 19.222c-2.013 1.163-3.46.194-3.46-1.53V3.01c0-1.723 1.446-2.693 3.46-1.53l12.542 7.245c1.251.723 1.251 2.53 0 3.251 0 .001-9.406 5.436-12.542 7.246z" fill="#00C1FF"/><path d="M13.875 19.222c-2.013 1.163-3.46.194-3.46-1.53V3.01c0-1.724 1.446-2.693 3.46-1.53l12.267 7.086c1.373.793 1.373 2.776 0 3.57l-12.267 7.086z" fill="#FCDE00"/><mask id="a" style="mask-type:alpha" maskUnits="userSpaceOnUse" x="10" y="0" width="18" height="20"><path d="M13.875 19.222c-2.013 1.163-3.46.194-3.46-1.53V3.01c0-1.724 1.446-2.693 3.46-1.53l12.267 7.086c1.373.793 1.373 2.776 0 3.57l-12.267 7.086z" fill="#FCDE00"/></mask><g filter="url(#filter0_f)" mask="url(#a)"><path d="M3.52 19.222c-2.013 1.163-3.46.194-3.46-1.53V3.01c0-1.723 1.446-2.693 3.46-1.53l12.542 7.245c1.251.723 1.251 2.53 0 3.251 0 .001-9.406 5.436-12.542 7.246z" fill="#FF8A00"/></g><path d="M33.853 13.624l.357-.808c.238-.548.666-.69 1.213-.286 1.046.761 2.758 1.332 5.041 1.332 1.95 0 2.782-.5 2.782-1.094 0-.666-.69-.856-1.831-.998l-2.592-.333c-3.115-.405-4.685-1.522-4.685-3.472 0-2.092 1.712-3.758 5.684-3.758 2.211 0 3.638.333 4.565.69 1.022.405 1.166.738 1.166 1.57v1.07c0 .665-.238.903-.904.903h-.737c-.666 0-.904-.238-.904-.903V7.18c-.428-.143-1.498-.357-2.758-.357-2.188 0-3.257.404-3.257 1.07 0 .499.642.785 1.807.951l2.544.333c3.115.404 4.756 1.331 4.756 3.567 0 2.282-2.164 3.733-6.016 3.733-2.83 0-5.113-.903-6.017-1.736-.333-.309-.38-.712-.214-1.117zm28.06 2.664h-1.308c-.643 0-.856-.095-1.166-.57l-2.473-3.639c-.358-.5-.619-.618-1.355-.618h-2.474v3.923c0 .666-.237.904-.903.904h-.951c-.666 0-.904-.238-.904-.904V3.566h-.88c-.665 0-.903-.238-.903-.903v-.786c0-.665.238-.903.903-.903h2.735c.666 0 .903.238.903.903v6.92h2.212c.737 0 .998-.118 1.355-.618l2.069-3.187c.332-.498.547-.593 1.188-.593h1.308c.714 0 .856.57.452 1.165l-2.306 3.495c-.238.333-.523.69-.809.976.286.237.69.642.856.88l2.9 4.232c.406.57.264 1.14-.45 1.14zm4.493 2.187v-.785c0-.666.238-.904.904-.904h1.141c.69 0 1.023-.142 1.284-.69l.142-.309L64.433 5.49c-.333-.618-.071-1.093.642-1.093h1.236c.643 0 .928.118 1.166.57l2.282 4.684a109.37 109.37 0 011.594 3.377 100.863 100.863 0 011.545-3.282l2.331-4.777c.215-.452.523-.57 1.166-.57h1.236c.713 0 .975.475.642 1.093l-6.205 11.77c-.714 1.357-1.546 2.117-3.4 2.117H67.31c-.666 0-.904-.238-.904-.904zm13.923-4.851l.357-.808c.237-.548.665-.69 1.213-.286 1.046.761 2.757 1.332 5.04 1.332 1.95 0 2.783-.5 2.783-1.094 0-.666-.69-.856-1.831-.998l-2.592-.333c-3.115-.405-4.685-1.522-4.685-3.472 0-2.092 1.712-3.758 5.683-3.758 2.212 0 3.638.333 4.566.69 1.022.405 1.165.738 1.165 1.57v1.07c0 .665-.237.903-.903.903h-.737c-.666 0-.904-.238-.904-.903V7.18c-.428-.143-1.498-.357-2.758-.357-2.188 0-3.257.404-3.257 1.07 0 .499.642.785 1.806.951l2.545.333c3.115.404 4.756 1.331 4.756 3.567 0 2.282-2.164 3.733-6.017 3.733-2.83 0-5.112-.903-6.016-1.736-.333-.309-.38-.712-.214-1.117zm37.92-3.947v5.707c0 .666-.238.904-.903.904h-.951c-.666 0-.904-.238-.904-.904V9.915c0-1.854-.903-2.972-2.759-2.972-1.498 0-2.687.928-3.567 1.902v6.54c0 .665-.238.903-.903.903h-.951c-.666 0-.904-.238-.904-.904V9.915c0-1.854-.88-2.972-2.734-2.972-1.451-.024-2.711.856-3.591 1.807v6.634c0 .666-.237.904-.903.904h-.951c-.666 0-.904-.238-.904-.904V6.99h-.88c-.665 0-.903-.237-.903-.903v-.785c0-.666.238-.903.903-.903h2.307c.666 0 .903.237.903.903v.642c.809-.832 2.117-1.736 4.091-1.736 2.187 0 3.613.714 4.47 2.045 1.046-1.07 2.473-2.045 4.566-2.045 3.375 0 5.468 1.855 5.468 5.47zm10.225-.832h2.806V8.44c0-1.046-1.26-1.664-3.257-1.664-1.807 0-3.258.666-4.114 1.308-.547.405-.975.285-1.213-.285l-.357-.809c-.166-.404-.119-.808.215-1.117.689-.643 2.71-1.665 5.611-1.665 3.282 0 5.778 1.38 5.778 3.853v7.323c0 .666-.238.904-.903.904h-.761c-.666 0-.904-.238-.904-.904v-.665c-.785.927-2.401 1.759-4.66 1.759-2.64 0-4.922-1.236-4.922-3.662-.001-2.616 2.401-3.971 6.681-3.971zM127 13.98c1.498 0 4.375-.808 4.375-2.949h-2.592c-2.949 0-4.161.618-4.161 1.641 0 .833.785 1.308 2.378 1.308zm23.397-4.565c0 .666-.238.904-.903.904h-.951c-.666 0-.904-.19-.904-.904 0-1.759-.666-2.544-2.282-2.544-1.522 0-2.782.951-3.496 2.093v6.42c0 .666-.237.904-.903.904h-.951c-.666 0-.903-.238-.903-.904V6.99h-.881c-.665 0-.903-.237-.903-.903v-.785c0-.666.238-.903.903-.903h2.307c.666 0 .903.237.903.903v.76c.856-.95 2.141-1.854 4.353-1.854 3.279 0 4.611 1.926 4.611 5.207zm2.707-5.016h1.593V1.284c0-.666.238-.904.904-.904h.951c.665 0 .903.238.903.904v3.115h5.921c.666 0 .904.237.904.903v.785c0 .666-.238.903-.904.903h-5.921v5.232c0 1.023.69 1.569 2.33 1.569 1.332 0 2.141-.452 2.616-.808.547-.405.928-.262 1.213.285l.452.903c.19.405.095.714-.262 1.023-.428.38-1.807 1.284-4.328 1.284-2.734 0-4.78-1.166-4.78-3.9V6.99h-1.593c-.666 0-.904-.238-.904-.904v-.785c.001-.666.239-.902.905-.902z" fill="#000"/><defs><filter id="filter0_f" x="-1.375" y="-.464" width="19.811" height="21.63" filterUnits="userSpaceOnUse" color-interpolation-filters="sRGB"><feFlood flood-opacity="0" result="BackgroundImageFix"/><feBlend in="SourceGraphic" in2="BackgroundImageFix" result="shape"/><feGaussianBlur stdDeviation=".718" result="effect1_foregroundBlur"/></filter></defs></svg>